<svg width="513" height="90" viewBox="0 0 513 90" fill="none" xmlns="http://www.w3.org/2000/svg">
<path fill-rule="evenodd" clip-rule="evenodd" d="M378.051 80.3083C380.885 82.1517 384.097 83.0735 387.685 83.0735C390.301 83.0735 392.472 82.6374 394.196 81.7652C395.921 80.893 397.308 79.8424 398.359 78.6134C399.409 77.3646 400.212 76.1852 400.767 75.0752H401.421V82.2707H412.006V29.3014L401.213 19.0308V44.1524H400.767C400.212 43.0424 399.429 41.863 398.418 40.6142C397.407 39.3455 396.04 38.2652 394.315 37.3732C392.591 36.4614 390.39 36.0055 387.714 36.0055C384.206 36.0055 381.024 36.9074 378.17 38.7112C375.315 40.4952 373.046 43.1415 371.361 46.65C369.696 50.1388 368.863 54.4204 368.863 59.4949C368.863 64.5099 369.686 68.7717 371.331 72.2802C372.976 75.7888 375.216 78.4648 378.051 80.3083ZM396.515 72.3992C394.91 73.6281 392.967 74.2426 390.688 74.2426C388.329 74.2426 386.337 73.6083 384.711 72.3397C383.106 71.0513 381.887 69.297 381.054 67.0769C380.241 64.837 379.835 62.2898 379.835 59.4354C379.835 56.6008 380.241 54.0834 381.054 51.8831C381.867 49.6828 383.076 47.9583 384.681 46.7095C386.287 45.4607 388.289 44.8363 390.688 44.8363C393.007 44.8363 394.959 45.4409 396.545 46.65C398.151 47.8592 399.36 49.554 400.173 51.7344C401.005 53.9149 401.421 56.4819 401.421 59.4354C401.421 62.3889 401.005 64.9757 400.173 67.1958C399.34 69.4159 398.121 71.1504 396.515 72.3992Z" fill="black"/>
<path d="M417.327 82.2706V29.0211L428.091 39.2918V82.2706H417.327Z" fill="black"/>
<path fill-rule="evenodd" clip-rule="evenodd" d="M454.24 83.1627C449.78 83.1627 445.915 82.1815 442.644 80.2191C439.374 78.2567 436.836 75.5113 435.032 71.9829C433.248 68.4546 432.356 64.3315 432.356 59.6138C432.356 54.8961 433.248 50.7632 435.032 47.215C436.836 43.6668 439.374 40.9115 442.644 38.9491C445.915 36.9867 449.78 36.0055 454.24 36.0055C458.7 36.0055 462.566 36.9867 465.836 38.9491C469.107 40.9115 471.634 43.6668 473.418 47.215C475.222 50.7632 476.124 54.8961 476.124 59.6138C476.124 64.3315 475.222 68.4546 473.418 71.9829C471.634 75.5113 469.107 78.2567 465.836 80.2191C462.566 82.1815 458.7 83.1627 454.24 83.1627ZM454.3 74.54C456.718 74.54 458.74 73.8759 460.365 72.5479C461.991 71.1999 463.2 69.3961 463.993 67.1364C464.806 64.8766 465.212 62.3592 465.212 59.5841C465.212 56.7892 464.806 54.2618 463.993 52.0021C463.2 49.7225 461.991 47.9088 460.365 46.5609C458.74 45.2129 456.718 44.539 454.3 44.539C451.822 44.539 449.76 45.2129 448.115 46.5609C446.49 47.9088 445.271 49.7225 444.458 52.0021C443.665 54.2618 443.269 56.7892 443.269 59.5841C443.269 62.3592 443.665 64.8766 444.458 67.1364C445.271 69.3961 446.49 71.1999 448.115 72.5479C449.76 73.8759 451.822 74.54 454.3 74.54Z" fill="black"/>
<path d="M353.746 63.0628V36.6001H364.509V82.2706H354.073V74.1534H353.597C352.566 76.7105 350.871 78.8017 348.513 80.4272C346.174 82.0526 343.289 82.8653 339.86 82.8653C336.867 82.8653 334.221 82.2012 331.921 80.8732C329.642 79.5252 327.858 77.5727 326.569 75.0157C325.281 72.4388 324.637 69.3267 324.637 65.6794L324.636 36.6001H335.4V64.0143C335.4 66.9084 336.193 69.2077 337.779 70.9125C339.365 72.6172 341.446 73.4695 344.023 73.4695C345.609 73.4695 347.145 73.083 348.632 72.3099C350.118 71.5369 351.337 70.3872 352.289 68.8609C353.26 67.3147 353.746 65.382 353.746 63.0628Z" fill="black"/>
<path d="M320.766 36.6001L312.229 36.6002V29.6583L301.465 19.3876V36.6002H294.983V44.9255H301.465V70.3178C301.445 73.1722 302.06 75.5509 303.309 77.4538C304.577 79.3568 306.292 80.7642 308.453 81.676C310.613 82.568 313.041 82.9744 315.737 82.8951C317.264 82.8554 318.552 82.7167 319.603 82.4788C320.673 82.2409 321.496 82.0229 322.071 81.8247L320.257 73.4101C319.959 73.4894 319.523 73.5786 318.949 73.6777C318.393 73.7768 317.779 73.8264 317.105 73.8264C316.213 73.8264 315.4 73.6876 314.667 73.4101C313.934 73.1326 313.339 72.6172 312.883 71.864C312.447 71.0909 312.229 69.9809 312.229 68.5338V44.9255H324.609L320.766 36.6001Z" fill="black"/>
<path d="M295.379 48.6719L285.567 49.7423C285.289 48.7512 284.804 47.8196 284.11 46.9474C283.436 46.0752 282.524 45.3715 281.375 44.8363C280.225 44.3011 278.817 44.0335 277.152 44.0335C274.912 44.0335 273.029 44.5192 271.503 45.4905C269.997 46.4617 269.253 47.7205 269.273 49.2666C269.253 50.5947 269.739 51.675 270.73 52.5075C271.741 53.3401 273.406 54.0239 275.725 54.5592L283.515 56.2242C287.837 57.1559 291.048 58.6326 293.149 60.6545C295.27 62.6764 296.34 65.3226 296.36 68.5933C296.34 71.4676 295.498 74.0048 293.833 76.2051C292.188 78.3855 289.898 80.0902 286.964 81.3192C284.031 82.5482 280.661 83.1627 276.855 83.1627C271.265 83.1627 266.766 81.9932 263.356 79.6541C259.947 77.2953 257.915 74.0147 257.261 69.8124L267.757 68.8015C268.232 70.863 269.243 72.419 270.789 73.4696C272.336 74.5202 274.348 75.0455 276.825 75.0455C279.382 75.0455 281.434 74.5202 282.98 73.4696C284.546 72.419 285.329 71.1207 285.329 69.5745C285.329 68.2663 284.824 67.1859 283.813 66.3336C282.822 65.4812 281.275 64.8271 279.174 64.3712L271.384 62.7358C267.003 61.824 263.762 60.2878 261.661 58.1272C259.56 55.9467 258.519 53.1914 258.539 49.8613C258.519 47.0465 259.283 44.6084 260.829 42.5469C262.395 40.4655 264.565 38.8599 267.34 37.73C270.135 36.5804 273.356 36.0055 277.004 36.0055C282.356 36.0055 286.568 37.1453 289.64 39.4248C292.733 41.7044 294.646 44.7868 295.379 48.6719Z" fill="black"/>
<path d="M179.193 44.9255V36.6002H170.184V29.6583L159.42 19.3876V36.6002H155.349L151.506 44.9255H159.42V70.3178C159.401 73.1722 160.015 75.5509 161.264 77.4538C162.533 79.3568 164.247 80.7642 166.408 81.676C168.568 82.568 170.997 82.9744 173.692 82.8951C175.219 82.8554 176.507 82.7167 177.558 82.4788C178.628 82.2409 179.451 82.0229 180.026 81.8247L178.212 73.4101C177.915 73.4894 177.479 73.5786 176.904 73.6777C176.349 73.7768 175.734 73.8264 175.06 73.8264C174.168 73.8264 173.355 73.6876 172.622 73.4101C171.889 73.1326 171.294 72.6172 170.838 71.864C170.402 71.0909 170.184 69.9809 170.184 68.5338V44.9255H179.193Z" fill="black"/>
<path fill-rule="evenodd" clip-rule="evenodd" d="M151.479 44.9255H145.834V68.5338C145.834 69.9809 146.052 71.0909 146.488 71.864C146.944 72.6172 147.539 73.1326 148.272 73.4101C149.006 73.6876 149.818 73.8264 150.71 73.8264C151.384 73.8264 151.999 73.7768 152.554 73.6777C153.129 73.5786 153.565 73.4894 153.862 73.4101L155.676 81.8247C155.101 82.0229 154.278 82.2409 153.208 82.4788C152.157 82.7167 150.869 82.8554 149.343 82.8951C146.647 82.9744 144.218 82.568 142.058 81.676C139.897 80.7642 138.183 79.3568 136.914 77.4538C135.665 75.5509 135.051 73.1722 135.07 70.3178V44.985H126L129.238 52.0812V82.0048H118.93V75.7429H118.575C117.923 77.0091 117.005 78.1962 115.82 79.3042C114.655 80.3923 113.184 81.2728 111.406 81.9455C109.649 82.5984 107.585 82.9248 105.215 82.9248C102.332 82.9248 99.7356 82.4104 97.4251 81.3816C95.1344 80.333 93.3176 78.7898 91.9748 76.752C90.6517 74.7141 89.9902 72.2014 89.9902 69.2139C89.9902 66.6419 90.4641 64.5151 91.412 62.8333C92.3599 61.1516 93.6533 59.8063 95.2924 58.7972C96.9314 57.7882 98.7778 57.0265 100.832 56.5121C102.905 55.9779 105.048 55.5921 107.259 55.3547C109.925 55.0777 112.088 54.8304 113.746 54.6128C115.405 54.3753 116.61 54.0192 117.36 53.5444C118.13 53.0498 118.515 52.288 118.515 51.2592V44.985L100.456 44.985L104.326 36.6002H135.07V19.3876L145.834 29.6583V36.6002H151.479V44.9255ZM108 75.0307C110.152 75.0307 112.018 74.6053 113.598 73.7545C115.178 72.884 116.393 71.7365 117.242 70.312C118.111 68.8875 118.545 67.3344 118.545 65.6527V60.2811C118.209 60.5581 117.637 60.8153 116.827 61.0527C116.037 61.2901 115.148 61.4979 114.161 61.6759C113.174 61.854 112.196 62.0123 111.229 62.1508C110.261 62.2893 109.422 62.408 108.711 62.5069C107.111 62.7245 105.68 63.0807 104.416 63.5753C103.152 64.0699 102.155 64.7624 101.424 65.6527C100.693 66.5232 100.328 67.6509 100.328 69.0359C100.328 71.0144 101.049 72.5081 102.49 73.5171C103.932 74.5262 105.768 75.0307 108 75.0307Z" fill="black"/>
<path d="M100.456 36.6002V44.985L78.2454 44.985V68.5338C78.2454 69.9809 78.4634 71.0909 78.8995 71.864C79.3554 72.6172 79.9501 73.1326 80.6835 73.4101C81.4169 73.6876 82.2297 73.8264 83.1217 73.8264C83.7956 73.8264 84.4101 73.7768 84.9651 73.6777C85.54 73.5786 85.9761 73.4894 86.2734 73.4101L88.0871 81.8247C87.5123 82.0229 86.6897 82.2409 85.6193 82.4788C84.5687 82.7167 83.2802 82.8554 81.7539 82.8951C79.0581 82.9744 76.6299 82.568 74.4692 81.676C72.3086 80.7642 70.594 79.3568 69.3254 77.4538C68.0766 75.5509 67.4621 73.1722 67.4819 70.3178V44.985H61V36.6002H67.4819V19.3876L78.2454 29.6583V36.6002H100.456Z" fill="black"/>
<path d="M225.487 81.8798C224.239 81.4395 223.059 80.8859 221.947 80.2191C220.134 79.1315 218.547 77.8035 217.185 76.2351C216.089 74.9733 215.139 73.556 214.335 71.9829C212.824 68.9955 211.953 65.5816 211.722 61.7415L211.722 61.7395C211.68 61.0449 211.659 60.3363 211.659 59.6138C211.659 58.171 211.632 56.7256 211.374 55.3062C211.166 54.1632 210.885 52.8259 210.589 52.0021C209.796 49.7225 208.587 47.9088 206.961 46.5608C205.336 45.2129 203.314 44.539 200.896 44.539C198.418 44.539 196.356 45.2129 194.711 46.5608C193.086 47.9088 191.867 49.7225 191.054 52.0021C190.261 54.2618 189.865 56.7891 189.865 59.5841C189.865 62.3592 190.261 64.8766 191.054 67.1364C191.867 69.3961 193.086 71.1999 194.711 72.5478C196.356 73.8759 198.418 74.54 200.896 74.54C203.314 74.54 205.336 73.8759 206.961 72.5478C207.852 71.8095 208.617 70.9344 209.258 69.9225C209.688 71.2477 210.211 72.5258 210.832 73.7539L210.836 73.7617L210.84 73.7695C211.813 75.6713 212.976 77.3947 214.328 78.9304C213.727 79.3921 213.095 79.8216 212.432 80.2191C209.162 82.1815 205.296 83.1627 200.836 83.1627C196.376 83.1627 192.511 82.1815 189.24 80.2191C185.97 78.2566 183.432 75.5113 181.629 71.9829C179.845 68.4545 178.953 64.3315 178.953 59.6138C178.953 54.8961 179.845 50.7632 181.629 47.215C183.432 43.6668 185.97 40.9115 189.24 38.9491C192.511 36.9867 196.376 36.0055 200.836 36.0055C205.296 36.0055 209.161 36.9866 212.432 38.9489C215.703 40.9113 218.23 43.6668 220.014 47.215C221.818 50.7632 222.72 54.8961 222.72 59.6138C222.72 61.0354 222.746 62.4594 222.997 63.8587C223.2 64.9902 223.473 66.3168 223.761 67.1364C224.574 69.3961 225.793 71.1999 227.418 72.5478C229.063 73.8759 231.125 74.54 233.603 74.54C236.021 74.54 238.043 73.8759 239.668 72.5478C241.294 71.1999 242.503 69.3961 243.296 67.1364C244.108 64.8766 244.515 62.3592 244.515 59.5841C244.515 56.7891 244.108 54.2618 243.296 52.0021C242.503 49.7225 241.294 47.9088 239.668 46.5608C238.043 45.2129 236.021 44.539 233.603 44.539C231.125 44.539 229.063 45.2129 227.418 46.5608C226.516 47.3087 225.739 48.1999 225.088 49.2345C224.657 47.9252 224.135 46.6612 223.517 45.4451C222.552 43.528 221.393 41.7916 220.041 40.2458C220.646 39.7807 221.281 39.3485 221.947 38.9491C225.218 36.9867 229.083 36.0055 233.543 36.0055C238.003 36.0055 241.868 36.9867 245.139 38.9491C248.41 40.9115 250.937 43.6668 252.721 47.215C254.525 50.7632 255.427 54.8961 255.427 59.6138C255.427 64.3315 254.525 68.4545 252.721 71.9829C250.937 75.5113 248.41 78.2566 245.139 80.2191C241.868 82.1815 238.003 83.1627 233.543 83.1627C233.264 83.1627 232.988 83.1588 232.714 83.1512C230.093 83.0779 227.684 82.6541 225.487 81.8798Z" fill="black"/>
<path d="M510.195 24.81C508.429 26.6232 506.156 27.5299 503.378 27.5299C500.599 27.5299 498.326 26.6232 496.56 24.81C494.794 22.9732 493.911 20.6889 493.911 17.9573C493.911 15.2256 494.794 12.9531 496.56 11.1399C498.326 9.30305 500.599 8.38464 503.378 8.38464C506.156 8.38464 508.429 9.30305 510.195 11.1399C511.961 12.9531 512.844 15.2256 512.844 17.9573C512.844 20.6889 511.961 22.9732 510.195 24.81ZM503.378 23.8562C504.814 23.8562 505.933 23.3264 506.733 22.2667C507.557 21.1834 507.97 19.747 507.97 17.9573C507.97 16.1675 507.557 14.7311 506.733 13.6478C505.933 12.5646 504.814 12.0229 503.378 12.0229C501.918 12.0229 500.787 12.5646 499.987 13.6478C499.186 14.7075 498.786 16.144 498.786 17.9573C498.786 19.747 499.186 21.1834 499.987 22.2667C500.787 23.3264 501.918 23.8562 503.378 23.8562Z" fill="black"/>
<path d="M488.615 8.87917V11.7757H488.721C489.286 10.716 489.91 9.93887 490.593 9.44434C491.276 8.92627 492.135 8.66723 493.171 8.66723C493.666 8.66723 494.043 8.71433 494.302 8.80852V13.012H494.196C492.571 12.8472 491.264 13.2004 490.275 14.0717C489.286 14.943 488.791 16.3088 488.791 18.1692V27H483.987V8.87917H488.615Z" fill="black"/>
<path d="M464.867 30.9343V8.87917H469.495V11.1399H469.6C470.943 9.30305 472.721 8.38464 474.934 8.38464C477.313 8.38464 479.22 9.26772 480.657 11.0339C482.093 12.8001 482.811 15.1078 482.811 17.9573C482.811 20.8773 482.093 23.2087 480.657 24.9513C479.22 26.6703 477.325 27.5299 474.97 27.5299C472.615 27.5299 470.872 26.6703 469.742 24.9513H469.671V30.9343H464.867ZM473.945 23.5383C475.17 23.5383 476.135 23.0556 476.842 22.0901C477.572 21.1246 477.937 19.7941 477.937 18.0985C477.937 16.2853 477.595 14.8606 476.912 13.8244C476.229 12.7883 475.182 12.2702 473.769 12.2702C472.332 12.2702 471.272 12.8118 470.59 13.8951C469.907 14.9548 469.565 16.3559 469.565 18.0985C469.565 19.7705 469.942 21.101 470.696 22.0901C471.449 23.0556 472.532 23.5383 473.945 23.5383Z" fill="black"/>
<path d="M40.4176 60.9989L0 20.2459L20.1364 0L40.4176 20.5405L40.4176 60.9989Z" fill="black"/>
<path d="M18.0949 69.3067C13.7619 75.0136 14.7794 83.117 20.3675 87.4062C25.9557 91.6953 33.9984 90.546 38.3315 84.8391C42.6645 79.1322 40.4176 60.9989 40.4176 60.9989C40.4176 60.9989 22.428 63.5997 18.0949 69.3067Z" fill="black"/>
</svg>
