<?xml version="1.0" encoding="UTF-8"?>
<svg id="Layer_1" xmlns="http://www.w3.org/2000/svg" version="1.1" viewBox="0 0 120 120">
  <!-- Generator: Adobe Illustrator 29.3.1, SVG Export Plug-In . SVG Version: 2.1.0 Build 151)  -->
  <defs>
    <style>
      .st0 {
        fill: #ccd0d3;
      }

      .st1 {
        fill: #1e2022;
      }
    </style>
  </defs>
  <g>
    <path class="st0" d="M73,.8c21.8,2,33.8,9.1,41.2,24.3,4.9,10,5.9,16.4,5.8,35.8,0,14.6-.3,18-1.9,23.6-6.4,22.9-19.4,32.6-47,35-20.4,1.8-40.5-1.3-50.8-7.9-9.1-5.8-15.5-15.8-18.7-29.4-2.4-10.3-2.2-36.5.4-46.1C8.9,11.1,24.9.8,58.4,0c2.6,0,9.2.3,14.6.8Z"/>
    <path class="st1" d="M72.2,73.8l-33.2-34,16.5-16.9,16.7,17.1v33.7Z"/>
  </g>
  <path class="st1" d="M53.9,80.8c-3.6,4.8-2.7,11.5,1.9,15.1,4.6,3.6,11.2,2.6,14.8-2.1,3.6-4.8,1.7-19.9,1.7-19.9,0,0-14.8,2.2-18.3,6.9Z"/>
</svg>